<svg className="fill-current" id="Layer_2" data-name="Layer 2" xmlns="http://www.w3.org/2000/svg" viewBox="0 0 7537.7 9146.35">
  <g id="Layer_1-2" data-name="Layer 1">
    <path fill="current" d="m3370.69,1067.31l-194.88-681.49c-20.79-74.48-106.53-114.2-180.58-83.17-339.08,139.03-623.6,355.02-837.96,621.9-49.37,60.83-29.88,148.96,40.27,187.44l657.38,358.74c124.72-179.99,304.01-321.5,515.77-403.43Z"/>
    <path fill="current" d="m2662.64,2071.51c0-148.96,31.18-290.47,88.34-418.33l-532.66-290.47c-59.76-32.27-135.11-7.45-159.8,53.38-111.73,265.64-153.3,558.6-113.03,855.28,9.09,64.55,75.35,106.75,141.61,89.38l585.93-152.68c-6.5-44.69-10.39-89.38-10.39-136.55Z"/>
    <path fill="current" d="m2730.19,2441.46l-718.44,187.44c-75.35,19.86-114.33,98.06-84.45,166.34,140.31,312.81,358.57,575.98,628.8,773.35,61.06,44.69,150.7,27.31,189.68-37.24l358.57-602.04c-168.89-124.13-300.11-292.95-374.16-487.84Z"/>
    <path fill="current" d="m3985.18,3142.81c-61.06,9.93-122.12,14.9-185.78,14.9-171.49,0-333.89-36-479.39-101.79l-458.61,767.14c-44.17,74.48-10.39,168.82,72.75,201.1,362.47,139.03,763.91,192.41,1169.25,141.51,88.34-11.17,146.81-94.34,123.42-177.51l-241.65-845.34Z"/>
    <path fill="current" d="m5350.62,3003.88l-605.41-330.19c-123.42,177.51-300.11,317.78-509.27,400.95l177.99,623.15c20.79,70.76,101.34,109.24,172.79,79.45,323.49-132.82,596.32-340.12,801.59-594.6,46.77-58.34,28.58-142.75-37.68-178.75Z"/>
    <path fill="current" d="m5641.64,1840.72c-9.09-64.55-75.35-106.75-141.61-89.38l-579.43,151.44c9.09,55.86,14.29,111.72,14.29,170.06,0,140.27-28.58,274.33-79.25,397.22l511.87,279.3c59.76,32.27,135.11,7.45,161.1-53.38,111.73-265.64,153.3-558.6,113.03-855.27Z"/>
    <path fill="current" d="m5666.32,1331.75c-142.91-317.78-365.07-584.67-637.89-785.76-62.36-45.93-153.3-27.31-192.28,37.24l-366.37,613.22c42.87,31.03,84.45,63.31,122.12,99.31,1.3,1.24,2.6,1.24,2.6,2.48,15.59,14.9,31.18,29.79,45.47,44.69,9.09,9.93,18.19,19.86,27.28,31.03,3.9,4.97,7.8,9.93,12.99,14.9,14.29,17.38,28.58,34.76,41.57,52.14,6.5,8.69,12.99,17.38,19.49,27.31,3.9,6.21,9.09,12.41,12.99,19.86,41.57,62.07,76.65,129.1,105.23,199.85l718.44-187.44c77.95-19.86,119.52-99.31,88.34-168.82Z"/>
    <path fill="current" d="m3595.43,1004.04c66.26-11.17,133.81-17.38,203.97-17.38,166.29,0,323.49,33.52,465.1,95.58l435.22-728.66c42.87-72,10.39-165.1-71.45-196.13C4272.3,20.91,3879.95-31.23,3482.4,18.43c-87.04,11.17-142.91,93.1-120.82,173.79l233.85,811.83Z"/>
    <polygon fill="current" points="982.73 6166.76 1513.53 5148.83 1808.98 5148.83 1808.98 6905.99 1511.03 6905.99 1511.03 5730.16 1090.39 6567.47 871.31 6567.47 458.18 5737.34 458.18 6905.99 160.23 6905.99 160.23 5147.63 453.17 5147.63 982.73 6166.76"/>
    <rect fill="current" x="2293.48" y="5147.63" width="309.22" height="1757.16"/>
    <polygon fill="current" points="2925.7 6904.79 3456.51 5998.1 2982.04 5147.63 3320.05 5147.63 3648.05 5748.1 3978.55 5147.63 4314.06 5147.63 3837.09 5998.1 4370.4 6904.79 4034.89 6904.79 3648.05 6266.04 3263.72 6904.79 2925.7 6904.79"/>
    <polygon fill="current" points="5795.05 5147.63 5795.05 5404.8 4977.56 5404.8 4977.56 5868.92 5716.18 5868.92 5716.18 6123.7 4977.56 6123.7 4977.56 6651.21 5795.05 6651.21 5795.05 6905.99 4668.34 6905.99 4668.34 5147.63 5795.05 5147.63"/>
    <path fill="current" d="m7143.34,6130.88v-209.33c0-361.24-117.68-516.74-380.58-516.74h-311.72v1245.2h311.72c264.15,0,380.58-157.89,380.58-519.13Zm-1001.52,773.92v-1757.16h620.94c413.13,0,689.8,211.72,689.8,773.92v209.33c0,562.2-276.67,773.92-689.8,773.92h-620.94Z"/>
    <path fill="current" d="m309.22,8356.87c0,379.18,132.7,532.29,378.07,532.29s380.58-153.11,380.58-532.29v-223.68c0-379.18-136.46-532.29-380.58-532.29s-378.07,153.11-378.07,532.29v223.68Zm378.07,789.47c-410.62,0-687.29-236.84-687.29-789.47v-223.68c0-552.63,276.67-789.47,687.29-789.47s689.8,236.84,689.8,789.47v223.68c0,552.63-276.67,789.47-689.8,789.47Z"/>
    <path fill="current" d="m2706.59,7792.29c-90.14-119.62-189.04-191.39-396.85-191.39-189.04,0-301.71,81.34-301.71,229.66,0,167.46,138.96,234.45,394.35,288.28,370.56,76.55,562.1,209.33,562.1,523.92,0,261.96-184.03,503.58-625.95,503.58-314.23,0-535.81-92.1-687.29-288.28l242.87-160.29c108.92,124.4,219.08,191.39,429.4,191.39,252.88,0,333.01-106.46,333.01-234.45,0-139.95-82.63-226.07-401.86-293.06-354.29-71.77-554.59-234.45-554.59-532.29,0-264.35,181.53-486.84,613.43-486.84,292.94,0,498.26,94.5,628.45,288.28l-235.36,161.48Z"/>
    <polygon fill="current" points="4486.81 7367.63 4486.81 7624.81 3959.76 7624.81 3959.76 9124.8 3650.54 9124.8 3650.54 7624.81 3119.73 7624.81 3119.73 7367.63 4486.81 7367.63"/>
    <polygon fill="current" points="5888.94 7367.63 5888.94 7624.81 5070.2 7624.81 5070.2 8087.72 5808.82 8087.72 5808.82 8342.51 5070.2 8342.51 5070.2 8870.01 5887.69 8870.01 5887.69 9124.8 4760.98 9124.8 4760.98 7367.63 5888.94 7367.63"/>
    <path fill="current" d="m6469.83,8356.87c0,379.18,132.7,532.29,378.07,532.29s380.58-153.11,380.58-532.29v-223.68c0-379.18-136.46-532.29-380.58-532.29s-378.07,153.11-378.07,532.29v223.68Zm378.07,789.47c-410.62,0-687.29-236.84-687.29-789.47v-223.68c0-552.63,276.67-789.47,687.29-789.47s689.8,236.84,689.8,789.47v223.68c0,552.63-276.67,789.47-689.8,789.47Z"/>
  </g>
</svg>
