<?xml version="1.0" standalone="no"?>
<!DOCTYPE svg PUBLIC "-//W3C//DTD SVG 20010904//EN"
 "http://www.w3.org/TR/2001/REC-SVG-20010904/DTD/svg10.dtd">
<svg version="1.0" xmlns="http://www.w3.org/2000/svg"
 width="1783.000000pt" height="1783.000000pt" viewBox="0 0 1783.000000 1783.000000"
 preserveAspectRatio="xMidYMid meet">
<metadata>
Created by potrace 1.14, written by Peter Selinger 2001-2017
</metadata>
<g transform="translate(0.000000,1783.000000) scale(0.100000,-0.100000)"
fill="#000000" stroke="none">
<path d="M5148 13727 c-637 -458 -1164 -839 -1172 -847 -8 -8 -165 -305 -349
-660 l-335 -645 -16 -1435 c-8 -789 -14 -1436 -12 -1437 2 -2 686 1312 1521
2919 835 1608 1520 2926 1522 2931 2 4 3 7 1 6 -2 0 -524 -375 -1160 -832z"/>
<path d="M11586 14430 c39 -74 725 -1394 1524 -2933 799 -1539 1454 -2796
1456 -2795 1 2 -4 649 -12 1438 l-16 1435 -335 645 c-184 355 -344 654 -356
666 -12 12 -526 383 -1142 824 -616 442 -1136 815 -1155 829 -34 26 -34 25 36
-109z"/>
<path d="M2434 11949 l-662 -1274 -6 -733 -6 -733 637 -1292 638 -1291 2 129
c8 422 63 6196 61 6319 l-3 149 -661 -1274z"/>
<path d="M14730 13005 c0 -197 56 -5825 63 -6220 l2 -159 637 1291 638 1291
-6 733 -6 734 -635 1225 c-350 674 -648 1248 -664 1275 l-29 50 0 -220z"/>
<path d="M9765 13014 c-249 -36 -569 -145 -815 -276 -144 -78 -254 -148 -422
-270 -210 -153 -407 -282 -508 -333 -204 -102 -487 -161 -895 -185 -93 -5
-475 -10 -847 -10 l-678 0 0 -285 0 -285 163 0 c119 0 186 -5 253 -19 371 -77
641 -403 731 -885 12 -63 16 -194 20 -584 l5 -504 -24 7 c-53 17 -80 38 -99
78 -17 38 -19 68 -19 315 l0 272 -325 0 -325 0 0 -1205 0 -1205 335 0 335 0 0
259 c0 142 3 286 6 319 7 64 16 74 92 97 l22 6 0 -1153 0 -1154 -102 -23 c-57
-12 -163 -43 -237 -67 -644 -215 -987 -627 -1026 -1234 -16 -260 42 -503 177
-730 142 -241 346 -370 588 -372 141 -1 228 41 274 134 68 136 11 255 -160
335 -83 38 -131 75 -146 112 -36 93 -28 251 19 349 90 191 353 305 633 273
248 -28 437 -115 621 -288 106 -101 173 -186 336 -428 76 -112 139 -202 141
-200 3 2 26 113 52 247 27 138 62 281 80 330 91 250 309 503 625 723 255 178
478 265 770 302 l140 18 3 266 2 266 -37 7 c-21 3 -63 6 -93 6 -143 0 -338 47
-437 106 -107 63 -191 186 -227 334 -46 191 -49 236 -53 1058 l-5 782 34 0
c52 0 244 -36 344 -65 312 -91 451 -245 511 -567 13 -69 16 -264 23 -1193 5
-610 11 -1123 14 -1140 3 -16 10 -81 17 -143 6 -63 22 -162 35 -220 86 -381
412 -715 963 -987 168 -84 313 -140 631 -245 260 -87 895 -280 918 -280 9 0
12 75 12 290 l0 289 -67 37 c-239 130 -348 206 -465 325 -196 198 -296 432
-319 748 -6 93 -9 477 -7 1046 4 995 1 943 70 1085 46 95 149 193 258 247 105
51 184 77 323 106 l107 22 0 297 c0 164 -2 298 -5 298 -2 0 -62 -18 -132 -41
-158 -50 -301 -79 -395 -79 -133 0 -394 110 -716 302 -75 45 -190 110 -255
143 l-117 61 87 33 c484 182 755 436 856 800 20 72 21 108 27 751 6 572 10
686 23 745 46 194 117 290 257 345 58 23 216 50 292 50 84 0 78 -20 78 279 l0
267 -167 17 c-304 31 -548 95 -771 202 -209 100 -392 244 -698 550 -213 212
-262 249 -386 292 -58 20 -96 26 -183 28 -60 2 -123 1 -140 -1z m182 -213
c121 -18 157 -43 382 -264 387 -380 594 -531 890 -646 169 -66 361 -116 536
-140 44 -6 95 -14 113 -17 l32 -5 0 -74 0 -75 -28 0 c-54 0 -187 -40 -271 -81
-146 -72 -246 -196 -301 -374 -48 -158 -52 -219 -59 -915 l-7 -655 -26 -73
c-36 -100 -81 -172 -158 -255 -228 -245 -662 -423 -1203 -492 -65 -8 -120 -15
-123 -15 -2 0 -4 -17 -4 -39 l0 -38 88 -6 c250 -19 547 -135 960 -376 226
-132 438 -237 572 -282 150 -51 305 -52 533 -3 l27 6 0 -65 0 -66 -42 -11
c-245 -63 -430 -171 -549 -320 -62 -77 -110 -175 -141 -285 l-23 -80 -3 -980
c-2 -665 0 -1015 8 -1088 33 -329 169 -612 405 -842 100 -98 222 -189 351
-263 l83 -47 1 -87 c0 -66 -3 -86 -12 -83 -7 2 -116 36 -243 74 -290 89 -634
205 -790 266 -467 185 -845 476 -988 761 -42 83 -61 147 -81 269 -35 210 -39
341 -46 1430 -7 1046 -8 1094 -28 1185 -75 349 -224 541 -512 660 -145 60
-413 118 -620 135 -41 3 -96 8 -122 11 l-48 6 0 -849 c0 -483 5 -900 10 -968
36 -419 145 -647 379 -785 77 -46 217 -94 316 -110 39 -6 85 -13 103 -16 l32
-5 0 -73 0 -73 -52 -7 c-185 -24 -430 -119 -648 -249 -224 -135 -517 -396
-643 -574 -89 -125 -174 -297 -213 -431 -2 -8 -30 19 -63 61 -133 164 -334
330 -496 407 -179 85 -318 115 -535 114 -183 -1 -265 -17 -389 -74 -127 -60
-254 -170 -314 -273 -97 -166 -113 -424 -37 -586 40 -84 99 -137 214 -194 83
-40 96 -50 86 -62 -18 -22 -125 -19 -203 5 -133 41 -237 147 -327 335 -80 165
-95 236 -95 460 0 162 4 203 22 277 89 350 288 581 648 749 131 62 342 127
522 162 l163 32 0 1363 0 1363 -77 -6 c-227 -18 -369 -78 -430 -182 -25 -42
-26 -52 -34 -276 -4 -128 -8 -233 -8 -234 -1 -2 -55 -3 -121 -3 l-120 0 0 990
0 990 109 0 108 0 6 -177 c4 -144 9 -191 26 -245 26 -81 70 -142 135 -185 72
-49 135 -65 279 -70 l127 -5 0 583 c0 614 -5 697 -49 880 -61 257 -182 480
-356 655 -183 185 -376 275 -656 305 l-109 12 0 68 0 67 713 5 c423 3 748 9
802 16 383 46 611 103 798 197 90 46 279 170 504 330 294 210 423 286 651 379
199 80 406 138 532 148 25 2 52 4 60 5 8 1 43 -2 77 -7z"/>
<path d="M8500 10295 l0 -1515 58 0 c198 1 659 45 776 75 246 62 400 182 469
363 21 56 22 69 25 742 4 865 -1 918 -113 1145 -135 275 -360 444 -782 589
-113 38 -396 116 -424 116 -5 0 -9 -626 -9 -1515z m356 1200 c434 -145 649
-334 729 -641 30 -116 36 -281 33 -914 -3 -610 -3 -626 -24 -670 -25 -54 -94
-119 -161 -153 -107 -54 -263 -85 -518 -102 -49 -3 -116 -8 -147 -11 l-58 -6
0 1271 c0 699 2 1271 5 1271 3 0 67 -20 141 -45z"/>
<path d="M840 10578 c0 -14 -7 -661 -15 -1436 l-16 -1411 324 -658 323 -658
1115 -837 c613 -461 1133 -852 1157 -869 l43 -31 -45 90 c-25 50 -666 1347
-1424 2884 -1588 3215 -1461 2961 -1462 2926z"/>
<path d="M15817 8237 c-641 -1299 -1299 -2631 -1461 -2960 -294 -594 -295
-597 -253 -567 23 17 543 407 1156 868 l1115 837 323 658 324 658 -16 1431
c-9 788 -17 1433 -18 1435 -2 1 -528 -1060 -1170 -2360z"/>
<path d="M114 7028 c57 -117 342 -697 634 -1288 l530 -1075 594 -446 593 -446
1408 -247 c775 -136 1410 -246 1412 -244 3 2 -4707 3538 -5236 3931 l-38 28
103 -213z"/>
<path d="M15178 5262 c-1450 -1087 -2635 -1979 -2633 -1981 2 -2 639 109 1414
245 l1411 249 591 445 591 445 540 1095 c513 1040 729 1480 725 1480 -1 -1
-1189 -890 -2639 -1978z"/>
</g>
</svg>
