<?xml version="1.0" standalone="no"?>
<!DOCTYPE svg PUBLIC "-//W3C//DTD SVG 20010904//EN"
 "http://www.w3.org/TR/2001/REC-SVG-20010904/DTD/svg10.dtd">
<svg version="1.0" xmlns="http://www.w3.org/2000/svg"
 width="1783.000000pt" height="1783.000000pt" viewBox="0 0 1783.000000 1783.000000"
 preserveAspectRatio="xMidYMid meet">
<metadata>
Created by potrace 1.14, written by Peter Selinger 2001-2017
</metadata>
<g transform="translate(0.000000,1783.000000) scale(0.100000,-0.100000)"
fill="#000000" stroke="none">
<path d="M6269 14534 c-32 -24 -155 -113 -693 -498 -131 -94 -307 -220 -391
-281 -231 -166 -396 -284 -765 -548 -408 -292 -442 -318 -455 -337 -12 -19
-167 -314 -390 -745 -155 -299 -220 -423 -252 -483 l-34 -63 -4 -387 c-7 -610
-14 -1267 -20 -1912 l-5 -595 43 80 c24 44 88 168 144 275 213 412 351 678
418 805 29 55 90 172 135 260 84 162 166 320 270 520 31 61 94 182 140 270 46
88 104 201 130 250 26 50 82 158 125 240 43 83 101 195 130 250 29 55 89 172
135 260 45 88 108 210 140 270 31 61 94 182 140 270 45 88 104 201 130 250 26
50 87 167 135 260 48 94 109 211 135 260 26 50 85 162 130 250 46 88 109 210
140 270 32 61 90 173 130 250 129 249 201 388 252 483 28 51 48 95 46 98 -3 2
-20 -8 -39 -22z"/>
<path d="M11520 14557 c0 -5 78 -157 180 -352 32 -60 88 -168 125 -240 37 -71
96 -184 130 -250 34 -66 100 -192 145 -280 46 -88 104 -200 130 -250 26 -49
87 -166 135 -260 48 -93 109 -210 135 -260 26 -49 82 -157 125 -240 42 -82
101 -195 130 -250 29 -55 96 -185 150 -290 54 -104 115 -221 135 -260 21 -38
74 -142 120 -230 45 -88 104 -200 130 -250 26 -49 85 -162 130 -250 45 -88
111 -214 145 -280 34 -66 100 -192 145 -280 46 -88 104 -200 130 -250 102
-195 233 -448 390 -750 40 -77 96 -185 125 -240 29 -55 87 -167 130 -250 42
-82 79 -152 82 -155 2 -2 2 241 -1 540 -4 300 -8 775 -11 1055 -3 281 -7 686
-10 902 l-4 392 -29 53 c-16 29 -66 125 -112 213 -45 88 -104 201 -130 250
-26 50 -89 171 -140 270 -94 182 -160 308 -232 445 l-39 75 -190 135 c-104 74
-200 143 -212 152 -12 10 -164 119 -337 243 -173 124 -331 237 -350 251 -19
14 -91 65 -160 115 -69 49 -129 92 -135 97 -11 9 -457 329 -525 377 -25 17
-126 90 -225 161 -194 140 -205 148 -205 141z"/>
<path d="M3084 13208 c-8 -18 -34 -69 -57 -113 -66 -126 -213 -407 -290 -555
-38 -74 -93 -180 -122 -235 -29 -55 -92 -176 -140 -270 -48 -93 -109 -210
-135 -260 -26 -49 -85 -162 -130 -250 -46 -88 -106 -205 -135 -260 -29 -55
-90 -172 -135 -260 -45 -88 -102 -196 -125 -240 l-43 -80 -7 -680 c-4 -374 -7
-707 -7 -740 0 -58 7 -74 257 -580 142 -286 340 -686 440 -890 100 -203 273
-552 383 -775 l201 -405 1 120 c2 177 8 749 15 1435 3 333 8 785 10 1005 4
412 13 1250 20 1920 2 209 7 668 11 1020 10 959 11 1125 7 1125 -2 0 -11 -15
-19 -32z"/>
<path d="M14726 13023 c1 -120 5 -533 9 -918 3 -385 8 -853 10 -1040 2 -187 6
-614 10 -950 3 -335 8 -770 10 -965 2 -195 7 -632 10 -970 4 -338 8 -759 10
-935 2 -176 4 -390 5 -475 l1 -155 180 365 c99 201 185 374 191 385 13 23 36
69 226 455 77 157 262 533 412 835 l272 550 -6 735 -7 735 -66 130 c-36 72
-87 171 -113 220 -55 106 -158 303 -260 500 -40 77 -94 181 -120 230 -26 50
-89 171 -140 270 -51 99 -114 221 -140 270 -26 50 -87 167 -135 260 -48 94
-107 206 -130 250 -23 44 -82 157 -130 250 -48 94 -91 173 -94 178 -4 4 -6
-91 -5 -210z"/>
<path d="M9685 13000 c-367 -65 -764 -245 -1122 -507 -245 -179 -476 -330
-573 -375 -95 -44 -272 -96 -384 -114 -21 -3 -48 -8 -60 -10 -11 -2 -41 -7
-66 -10 -25 -3 -55 -7 -68 -9 -13 -2 -51 -7 -85 -10 -34 -3 -84 -9 -112 -12
-27 -3 -401 -7 -830 -10 -429 -3 -782 -6 -784 -8 -3 -3 -4 -462 -2 -542 1 -22
3 -23 144 -21 159 1 218 -5 327 -34 304 -80 562 -379 652 -758 41 -173 45
-239 47 -728 l2 -474 -23 7 c-55 17 -81 38 -99 81 -18 41 -20 68 -21 314 l0
270 -324 0 -324 0 0 -27 c-1 -51 -1 -2287 0 -2334 l0 -46 335 1 335 0 1 235
c0 130 2 259 4 286 1 28 3 64 4 81 1 27 7 35 46 53 25 12 49 21 55 21 7 0 10
-383 10 -1153 l0 -1153 -117 -27 c-671 -158 -1078 -504 -1207 -1024 -55 -218
-56 -466 -4 -673 62 -248 223 -498 388 -602 181 -115 416 -136 544 -50 55 37
96 117 96 189 0 101 -53 165 -194 234 -44 22 -93 51 -107 65 -65 62 -73 261
-16 383 63 137 224 250 396 276 71 12 202 13 261 4 139 -22 141 -22 220 -49
101 -35 233 -109 304 -170 86 -73 115 -102 175 -171 92 -106 83 -93 237 -323
108 -162 140 -203 146 -189 4 10 25 113 48 230 44 232 67 315 112 413 34 73
103 183 157 250 74 92 228 241 321 310 18 14 45 35 59 46 55 45 203 136 308
188 182 92 361 141 578 161 38 3 72 9 75 11 7 7 7 534 0 535 -3 0 -25 2 -50 4
-238 17 -214 14 -325 40 -217 51 -348 178 -403 390 -53 204 -54 219 -57 1089
l-2 768 61 -5 c34 -4 71 -8 82 -11 12 -2 39 -7 60 -10 159 -26 357 -100 448
-169 75 -56 167 -186 189 -267 29 -101 38 -141 43 -180 3 -24 8 -49 12 -54 3
-6 7 -442 8 -971 2 -1187 8 -1344 60 -1620 75 -393 384 -730 927 -1008 248
-128 567 -243 1172 -423 254 -77 349 -105 379 -115 57 -18 54 -32 52 283 l-1
292 -65 34 c-498 262 -729 558 -776 997 -5 39 -8 502 -8 1030 -1 1062 -2 1033
64 1174 55 117 197 234 350 290 61 22 151 48 190 55 83 14 150 29 151 35 5 27
3 584 -2 587 -4 2 -72 -16 -150 -41 -253 -80 -401 -93 -538 -48 -42 14 -80 30
-85 34 -6 5 -16 9 -24 9 -26 0 -403 195 -410 212 -2 4 -7 8 -12 8 -4 0 -39 19
-76 42 -38 23 -126 71 -197 108 l-127 67 87 32 c186 70 403 187 513 277 128
106 245 261 301 399 61 154 61 155 64 795 2 322 6 619 9 661 28 362 144 510
426 544 25 3 56 8 68 10 13 2 51 5 83 6 33 1 63 7 67 13 4 6 7 127 7 269 0
221 -2 258 -15 262 -8 2 -47 7 -87 10 -163 12 -305 35 -463 75 -410 103 -638
248 -1073 682 -228 227 -270 258 -412 304 -76 24 -259 26 -380 4z m346 -220
c82 -30 99 -45 304 -248 374 -371 576 -519 862 -633 140 -56 350 -116 462
-133 19 -3 66 -10 105 -16 39 -6 86 -14 104 -16 l32 -5 0 -74 0 -75 -27 0
c-24 0 -106 -19 -203 -46 -37 -11 -108 -51 -167 -95 -122 -91 -212 -273 -239
-483 -3 -23 -8 -52 -11 -66 -3 -14 -6 -295 -8 -625 -1 -330 -6 -627 -10 -660
-8 -71 -44 -180 -81 -244 -136 -234 -449 -427 -884 -544 -98 -26 -220 -53
-287 -62 -21 -3 -67 -10 -103 -15 -36 -5 -84 -12 -108 -14 -56 -7 -60 -10 -56
-42 4 -38 11 -42 94 -48 41 -3 107 -13 145 -21 39 -9 79 -18 89 -20 55 -12
203 -66 306 -112 94 -41 260 -129 400 -212 242 -143 542 -289 630 -306 8 -2
35 -8 58 -15 51 -13 185 -17 257 -6 28 4 66 9 85 12 19 3 51 9 70 15 19 5 39
9 43 9 4 0 7 -30 5 -67 l-3 -67 -40 -8 c-242 -49 -488 -208 -594 -382 -32 -54
-78 -158 -87 -197 -2 -10 -6 -29 -9 -41 -18 -73 -20 -204 -20 -1113 0 -905 3
-1052 20 -1135 2 -14 7 -38 11 -55 11 -56 66 -220 92 -275 77 -161 194 -315
330 -436 93 -84 278 -213 355 -249 20 -9 37 -25 38 -34 1 -20 1 -143 0 -153
-1 -4 -22 0 -48 8 -27 8 -55 17 -63 19 -32 8 -312 95 -465 145 -418 135 -650
232 -878 367 -186 110 -383 272 -464 381 -16 20 -34 43 -40 50 -20 21 -77 122
-101 179 -24 56 -47 148 -58 228 -3 28 -8 59 -10 70 -2 11 -7 53 -10 95 -3 41
-8 95 -11 120 -2 25 -6 371 -9 770 -6 1081 -10 1432 -18 1460 -3 14 -8 43 -11
65 -15 126 -74 284 -150 405 -55 87 -181 193 -300 252 -109 55 -348 121 -515
143 -25 3 -56 8 -70 10 -24 4 -123 13 -223 20 l-48 3 4 -921 c3 -507 7 -933 9
-947 3 -14 8 -52 12 -85 12 -93 53 -249 86 -327 107 -252 329 -396 679 -442
24 -3 46 -8 49 -10 3 -4 5 -72 3 -127 -1 -12 -15 -18 -53 -23 -279 -37 -635
-209 -938 -454 -89 -72 -278 -269 -343 -356 -92 -125 -181 -302 -223 -444 -2
-8 -26 14 -55 50 -151 189 -307 318 -497 413 -81 40 -222 90 -281 100 -119 19
-174 23 -296 20 -116 -2 -155 -7 -228 -29 -325 -97 -514 -323 -523 -626 -7
-252 63 -378 265 -476 90 -43 94 -47 76 -60 -27 -20 -135 -16 -205 8 -135 46
-239 156 -330 351 -65 138 -93 278 -92 452 0 89 3 116 22 225 76 427 379 723
910 888 95 30 293 75 383 88 34 4 47 11 48 23 3 57 4 2688 1 2699 -3 9 -23 11
-76 7 -250 -20 -379 -79 -445 -202 -14 -27 -24 -169 -25 -355 l-1 -138 -37 -1
c-21 -1 -49 -1 -63 -1 -14 0 -52 0 -85 1 l-60 1 2 988 3 987 108 1 c72 1 107
-2 108 -10 0 -6 2 -87 4 -181 2 -128 7 -182 20 -220 64 -188 193 -265 437
-262 l112 2 -1 550 c0 632 -4 703 -53 910 -87 372 -328 704 -615 847 -120 61
-284 104 -425 112 -36 3 -68 5 -72 5 -5 1 -8 32 -8 69 l0 68 563 1 c482 0 696
5 892 18 133 9 343 40 475 70 300 69 455 150 918 484 208 149 320 218 484 295
376 178 720 250 889 186z"/>
<path d="M8500 10291 c0 -1212 3 -1520 13 -1516 6 2 73 7 147 10 156 7 246 13
430 31 67 6 203 27 254 38 62 14 187 68 247 108 80 51 150 125 183 192 55 113
55 104 54 856 0 628 -3 734 -22 835 -12 62 -15 72 -36 135 -104 310 -339 527
-727 676 -122 46 -376 122 -466 139 -12 3 -34 7 -49 11 l-28 6 0 -1521z m342
1209 c68 -22 132 -44 143 -49 172 -81 259 -125 275 -141 3 -3 23 -19 45 -35
108 -80 200 -200 247 -322 61 -158 62 -160 62 -933 l1 -705 -24 -48 c-28 -57
-67 -98 -128 -134 -51 -30 -157 -70 -206 -78 -17 -3 -39 -8 -47 -10 -8 -2 -44
-7 -80 -10 -36 -4 -76 -8 -90 -10 -14 -2 -72 -6 -130 -10 -58 -3 -125 -8 -150
-11 l-46 -4 0 1270 c0 699 1 1270 3 1270 1 0 58 -18 125 -40z"/>
<path d="M834 10402 c-1 -223 -13 -1422 -19 -1912 -2 -151 -4 -385 -5 -520
l-1 -245 272 -550 c149 -303 295 -599 324 -658 l53 -108 319 -240 c175 -132
327 -246 338 -254 393 -293 439 -328 480 -360 11 -9 252 -189 535 -401 283
-212 528 -395 544 -407 16 -12 42 -33 58 -46 16 -13 31 -22 33 -19 2 2 -77
168 -177 368 -99 201 -240 487 -313 635 -73 149 -233 473 -355 720 -122 248
-298 603 -390 790 -92 187 -270 547 -395 800 -125 253 -307 622 -405 820 -98
198 -284 576 -415 840 -130 264 -291 589 -356 723 -66 133 -120 242 -122 242
-1 0 -3 -98 -3 -218z"/>
<path d="M16898 10432 c-48 -97 -216 -438 -373 -757 -158 -319 -358 -724 -445
-900 -87 -176 -251 -509 -365 -740 -114 -231 -290 -586 -390 -790 -100 -203
-285 -577 -410 -830 -125 -253 -303 -613 -395 -800 -92 -187 -235 -476 -317
-642 -82 -166 -144 -298 -138 -294 5 5 361 271 790 592 429 321 785 587 790
591 6 5 89 67 185 139 96 72 187 140 202 152 15 12 95 72 179 132 l151 110
259 525 c143 289 265 534 271 545 25 43 116 231 123 255 5 14 8 52 8 85 -2
127 -22 1915 -27 2518 -2 152 -5 279 -7 282 -3 2 -44 -76 -91 -173z"/>
<path d="M74 7102 c42 -83 141 -283 220 -444 79 -161 248 -504 376 -763 128
-258 313 -634 412 -835 98 -201 184 -374 189 -385 8 -15 196 -161 424 -327 6
-4 44 -34 85 -65 41 -32 109 -83 150 -113 41 -30 77 -57 80 -60 3 -3 21 -17
40 -30 19 -14 40 -28 45 -33 6 -4 44 -33 85 -63 41 -31 89 -67 105 -79 145
-113 178 -133 221 -140 25 -3 56 -8 67 -11 32 -6 240 -43 387 -69 19 -3 82
-14 140 -25 105 -18 163 -28 210 -36 14 -2 34 -6 46 -9 12 -3 39 -7 60 -10 21
-3 62 -10 89 -15 28 -5 64 -12 80 -15 17 -3 41 -7 55 -10 14 -2 79 -14 145
-25 66 -12 131 -23 145 -26 55 -10 197 -35 225 -40 17 -2 66 -11 110 -19 91
-16 115 -20 165 -29 73 -12 377 -66 425 -76 44 -8 84 -15 150 -25 68 -11 262
-46 273 -50 29 -10 8 16 -40 52 -29 21 -60 43 -68 50 -8 7 -541 407 -1185 889
-643 481 -1183 886 -1200 899 -16 12 -73 54 -125 93 -52 39 -99 75 -105 80 -5
4 -64 48 -130 97 -66 49 -124 93 -130 98 -9 7 -173 129 -231 172 -46 34 -458
344 -469 352 -5 5 -57 44 -115 87 -58 43 -120 90 -139 104 -18 15 -40 31 -49
36 -8 5 -22 14 -31 22 -19 16 -118 91 -157 119 -44 32 -218 164 -230 173 -6 5
-35 27 -65 48 -30 21 -65 49 -79 61 -14 13 -28 23 -32 23 -3 0 -13 6 -20 13
-7 6 -157 120 -333 251 -176 131 -326 244 -334 250 -7 6 21 -58 63 -142z"/>
<path d="M17430 6954 c-206 -156 -383 -289 -393 -296 -10 -7 -149 -112 -311
-233 -161 -121 -304 -228 -317 -238 -61 -46 -1629 -1221 -1664 -1248 -42 -32
-506 -380 -540 -405 -210 -154 -1675 -1257 -1673 -1259 2 -2 50 5 108 16 58
11 119 22 135 25 17 3 104 18 195 34 91 16 271 47 400 70 296 52 304 54 485
85 83 14 170 30 195 35 25 5 61 12 80 15 32 5 91 15 175 30 17 2 40 7 51 9 12
2 37 7 55 10 19 3 45 8 59 10 14 3 90 16 170 30 80 14 154 27 165 30 11 2 40
7 65 11 83 14 95 16 200 35 58 10 123 22 145 25 22 4 54 9 70 11 17 3 44 9 61
13 22 6 763 550 904 664 8 7 79 59 157 117 l141 105 155 315 c86 173 263 533
395 800 566 1145 722 1463 722 1466 0 12 -46 -22 -390 -282z"/>
</g>
</svg>
